<svg xmlns="http://www.w3.org/2000/svg" viewBox="0 0 24 24" fill="none" stroke="currentColor" stroke-width="2" stroke-linecap="round" stroke-linejoin="round"><path d="M19.439 7.85c-.049.322.059.648.289.878l1.568 1.568c.47.47.706 1.087.706 1.704s-.235 1.233-.706 1.704l-1.617 1.617a1.224 1.224 0 0 1-1.75 0 1.224 1.224 0 0 0-1.75 0l-.293.292a1.224 1.224 0 0 0 0 1.75l.293.293a1.224 1.224 0 0 1 0 1.75l-1.617 1.617c-.47.47-1.087.706-1.704.706s-1.234-.235-1.704-.706l-1.568-1.568a1.224 1.224 0 0 0-.878-.289 1.25 1.25 0 0 0-.878.289l-.293.293a1.224 1.224 0 0 1-1.75 0 1.224 1.224 0 0 0-1.75 0l-1.617 1.617c-.47.47-1.087.706-1.704.706s-1.233-.235-1.704-.706L1.704 17.14a1.224 1.224 0 0 1 0-1.75l.293-.293a1.224 1.224 0 0 0 0-1.75 1.224 1.224 0 0 1 0-1.75L3.614 10.73c.47-.47 1.087-.706 1.704-.706s1.234.235 1.704.706l1.568 1.568c.23.23.556.338.878.289a1.25 1.25 0 0 0 .878-.289l.292-.293a1.224 1.224 0 0 0 0-1.75 1.224 1.224 0 0 1 0-1.75L10.73 6.116c-.47-.47-.706-1.087-.706-1.704s.235-1.233.706-1.704l1.617-1.617c.47-.47 1.087-.706 1.704-.706s1.234.235 1.704.706l1.568 1.568c.23.23.556.338.878.289l.412-.082"/></svg>
